<?xml version="1.0" encoding="UTF-8"?>
<svg id="Livello_2" data-name="Livello 2" xmlns="http://www.w3.org/2000/svg" viewBox="0 0 500 500">
  <defs>
    <style>
      .cls-1 {
        fill: none;
      }

      .cls-2 {
        fill-rule: evenodd;
      }
    </style>
  </defs>
  <g id="Livello_1-2" data-name="Livello 1">
    <path class="cls-2" d="m442.31,24.92v393.09h-87.66c-23.1,0-42.38-16.11-47.01-37.58-.05-.25-.11-.49-.15-.74l-18.91-90.91-8.07-38.78-29.14-140.06-.68-3.26c-8.04-35.68-34.5-64.49-69-76.15-10.74-3.63-22.25-5.6-34.23-5.6H0v57.06h0v393.09h57.69V81.99h89.74c23.09,0,42.37,16.11,47.01,37.58.05.25.1.49.15.74l18.92,90.9,8.07,38.79,29.15,140.06.68,3.26c8.05,35.74,34.58,64.58,69.16,76.2,10.69,3.6,22.15,5.55,34.07,5.55h145.35V24.92h-57.69Z"/>
    <rect class="cls-1" width="500" height="500"/>
  </g>
</svg>
