<?xml version="1.0" encoding="UTF-8"?>
<svg id="Livello_2" data-name="Livello 2" xmlns="http://www.w3.org/2000/svg" viewBox="0 0 500 125">
  <defs>
    <style>
      .cls-1 {
        fill: none;
      }

      .cls-2 {
        fill: #fff;
        fill-rule: evenodd;
      }
    </style>
  </defs>
  <g id="Livello_1-2" data-name="Livello 1">
    <g id="Menu">
      <g id="Menu-full">
        <g id="neulabs-logo-k">
          <path id="Fill-13" class="cls-2" d="m484.13,58.38h-27.78c-4.82,0-8.73-3.87-8.73-8.63s3.91-8.64,8.73-8.64h39.68v-7.06h-39.68c-8.77,0-15.87,7.03-15.87,15.7s7.11,15.7,15.87,15.7h27.78c4.82,0,8.73,3.87,8.73,8.63s-3.91,8.63-8.73,8.63h-41.67v7.06h41.67c8.77,0,15.87-7.03,15.87-15.7s-7.11-15.7-15.87-15.7"/>
          <path id="Fill-1" class="cls-2" d="m409.52,82.71h-35.71v-11.38c0-3.25,2.66-5.89,5.95-5.89h29.76c4.82,0,8.73,3.87,8.73,8.64s-3.91,8.63-8.73,8.63h0Zm-14.45-41.6h13.26c4.82,0,8.73,3.87,8.73,8.63s-3.91,8.64-8.73,8.64h-28.57c-2.2,0-4.25.66-5.95,1.8v-19.07h21.27Zm23.85,20.32c3.24-2.87,5.28-7.05,5.28-11.69,0-8.67-7.11-15.7-15.87-15.7h-41.67v55.73h42.86c8.77,0,15.87-7.03,15.87-15.7,0-5.19-2.54-9.79-6.47-12.65h0Z"/>
          <path id="Fill-15" class="cls-2" d="m303.04,70.55l8.52-24.77,1.6-4.66h13.36l1.6,4.66,8.52,24.77h-33.59Zm43.57,7.06l-2.43-7.06-11.03-32.08c-.08-.29-.18-.58-.29-.85-.36-.83-.91-1.56-1.59-2.14-1.04-.89-2.4-1.43-3.88-1.43h-15.1c-1.48,0-2.84.54-3.88,1.43-.68.58-1.23,1.31-1.59,2.14-.12.27-.22.56-.29.85l-11.03,32.08-2.43,7.06-4.18,12.17h7.54l4.18-12.17h38.45l4.18,12.17h7.54l-4.18-12.17Z"/>
          <polygon id="Fill-4" class="cls-2" points="231.35 82.71 231.35 34.04 224.21 34.04 224.21 82.71 224.21 89.78 231.35 89.78 275.79 89.78 275.79 82.71 231.35 82.71"/>
          <path id="Fill-10" class="cls-2" d="m206.75,34.04v33.4c0,14.28-11.21,23.51-28.57,23.51-17.36,0-28.57-9.23-28.57-23.51v-33.4h7.14v32.21c0,10.71,8.41,17.63,21.43,17.63,13.02,0,21.43-6.92,21.43-17.63v-32.21h7.14Z"/>
          <path id="Fill-7" class="cls-2" d="m133.73,41.11v-7.06h-51.59v55.73h51.59v-7.06h-44.44v-11.38c0-3.25,2.66-5.89,5.95-5.89h29.76v-7.06h-29.76c-2.2,0-4.25.66-5.95,1.8v-19.07h44.44Z"/>
          <path class="cls-2" d="m54.76,34.04v48.67h-10.85c-2.86,0-5.25-1.99-5.82-4.65,0-.03-.01-.06-.02-.09l-2.34-11.26-1-4.8-3.61-17.34-.08-.4c-1-4.42-4.27-7.98-8.54-9.43-1.33-.45-2.76-.69-4.24-.69H0v7.06h0v48.67h7.14v-48.67h11.11c2.86,0,5.25,1.99,5.82,4.65,0,.03.01.06.02.09l2.34,11.25,1,4.8,3.61,17.34.08.4c1,4.42,4.28,8,8.56,9.43,1.32.45,2.74.69,4.22.69h18v-55.73h-7.14Z"/>
        </g>
      </g>
    </g>
    <rect class="cls-1" width="500" height="125"/>
  </g>
</svg>
