<?xml version="1.0" encoding="utf-8"?>
<!-- Generator: Adobe Illustrator 27.5.0, SVG Export Plug-In . SVG Version: 6.00 Build 0)  -->
<svg version="1.1" id="Livello_2_00000176728531501493411450000017441537656253950885_"
	 xmlns="http://www.w3.org/2000/svg" xmlns:xlink="http://www.w3.org/1999/xlink" x="0px" y="0px" viewBox="0 0 500 125"
	 style="enable-background:new 0 0 500 125;" xml:space="preserve">
<style type="text/css">
	.st0{fill-rule:evenodd;clip-rule:evenodd;}
	.st1{fill:none;}
</style>
<g id="Livello_1-2">
	<g id="Menu">
		<g id="Menu-full">
			<g id="neulabs-logo-k">
				<path id="Fill-13" class="st0" d="M484.1,58.4h-27.8c-4.8,0-8.7-3.9-8.7-8.6s3.9-8.6,8.7-8.6H496V34h-39.7
					c-8.8,0-15.9,7-15.9,15.7s7.1,15.7,15.9,15.7h27.8c4.8,0,8.7,3.9,8.7,8.6s-3.9,8.6-8.7,8.6h-41.7v7.1h41.7
					c8.8,0,15.9-7,15.9-15.7S492.9,58.4,484.1,58.4"/>
				<path id="Fill-1" class="st0" d="M409.5,82.7h-35.7V71.3c0-3.2,2.7-5.9,6-5.9h29.8c4.8,0,8.7,3.9,8.7,8.6S414.3,82.7,409.5,82.7
					L409.5,82.7L409.5,82.7z M395.1,41.1h13.3c4.8,0,8.7,3.9,8.7,8.6s-3.9,8.6-8.7,8.6h-28.6c-2.2,0-4.2,0.7-6,1.8V41.1H395.1
					L395.1,41.1z M418.9,61.4c3.2-2.9,5.3-7,5.3-11.7c0-8.7-7.1-15.7-15.9-15.7h-41.7v55.7h42.9c8.8,0,15.9-7,15.9-15.7
					C425.4,68.9,422.8,64.3,418.9,61.4L418.9,61.4L418.9,61.4z"/>
				<path id="Fill-15" class="st0" d="M303,70.5l8.5-24.8l1.6-4.7h13.4l1.6,4.7l8.5,24.8H303L303,70.5z M346.6,77.6l-2.4-7.1
					l-11-32.1c-0.1-0.3-0.2-0.6-0.3-0.8c-0.4-0.8-0.9-1.6-1.6-2.1c-1-0.9-2.4-1.4-3.9-1.4h-15.1c-1.5,0-2.8,0.5-3.9,1.4
					c-0.7,0.6-1.2,1.3-1.6,2.1c-0.1,0.3-0.2,0.6-0.3,0.8l-11,32.1l-2.4,7.1l-4.2,12.2h7.5l4.2-12.2h38.5l4.2,12.2h7.5L346.6,77.6
					L346.6,77.6z"/>
				<polygon id="Fill-4" class="st0" points="231.4,82.7 231.4,34 224.2,34 224.2,82.7 224.2,89.8 231.4,89.8 275.8,89.8
					275.8,82.7 				"/>
				<path id="Fill-10" class="st0" d="M206.8,34v33.4c0,14.3-11.2,23.5-28.6,23.5s-28.6-9.2-28.6-23.5V34h7.1v32.2
					c0,10.7,8.4,17.6,21.4,17.6s21.4-6.9,21.4-17.6V34H206.8L206.8,34z"/>
				<path id="Fill-7" class="st0" d="M133.7,41.1V34H82.1v55.7h51.6v-7.1H89.3V71.3c0-3.2,2.7-5.9,5.9-5.9H125v-7.1H95.2
					c-2.2,0-4.2,0.7-5.9,1.8V41.1L133.7,41.1L133.7,41.1z"/>
				<path class="st0" d="M54.8,34v48.7H43.9c-2.9,0-5.2-2-5.8-4.7c0,0,0-0.1,0-0.1l-2.3-11.3l-1-4.8l-3.6-17.3L31,44.2
					c-1-4.4-4.3-8-8.5-9.4c-1.3-0.5-2.8-0.7-4.2-0.7H0v7.1l0,0v48.7h7.1V41.1h11.1c2.9,0,5.2,2,5.8,4.7c0,0,0,0.1,0,0.1l2.3,11.2
					l1,4.8L31,79.2l0.1,0.4c1,4.4,4.3,8,8.6,9.4c1.3,0.4,2.7,0.7,4.2,0.7h18V34L54.8,34L54.8,34z"/>
			</g>
		</g>
	</g>
	<rect y="0" class="st1" width="500" height="125"/>
</g>
</svg>
